<mxfile host="www.draw.io" modified="2020-02-18T09:19:58.305Z" agent="Mozilla/5.0 (Macintosh; Intel Mac OS X 10_14_6) AppleWebKit/537.36 (KHTML, like Gecko) Chrome/80.0.3987.106 Safari/537.36" etag="lSzyXqMOQRQHCuXcw4I3" version="12.7.1" type="github">
  <diagram id="7DQfuFVQGyTnUzgud1ia" name="第 1 页">
    <mxGraphModel dx="1138" dy="591" grid="1" gridSize="10" guides="1" tooltips="1" connect="1" arrows="1" fold="1" page="1" pageScale="1" pageWidth="850" pageHeight="1100" math="0" shadow="0">
      <root>
        <mxCell id="0" />
        <mxCell id="1" parent="0" />
        <mxCell id="835MB37bWAvFM6t5tNVV-1" value="«interface»&lt;br&gt;&lt;b&gt;IInterface&lt;br&gt;+asBinder()&lt;br&gt;&lt;/b&gt;" style="html=1;" vertex="1" parent="1">
          <mxGeometry x="240" y="40" width="110" height="50" as="geometry" />
        </mxCell>
        <mxCell id="835MB37bWAvFM6t5tNVV-2" value="«interface»&lt;br&gt;&lt;b&gt;IBinder&lt;br&gt;+transact()&lt;br&gt;&lt;/b&gt;" style="html=1;" vertex="1" parent="1">
          <mxGeometry x="475" y="40" width="110" height="50" as="geometry" />
        </mxCell>
        <mxCell id="835MB37bWAvFM6t5tNVV-3" value="" style="endArrow=block;dashed=1;endFill=0;endSize=12;html=1;entryX=0.5;entryY=1;entryDx=0;entryDy=0;" edge="1" parent="1" target="835MB37bWAvFM6t5tNVV-2">
          <mxGeometry width="160" relative="1" as="geometry">
            <mxPoint x="530" y="130" as="sourcePoint" />
            <mxPoint x="400" y="200" as="targetPoint" />
            <Array as="points">
              <mxPoint x="530" y="100" />
            </Array>
          </mxGeometry>
        </mxCell>
        <mxCell id="835MB37bWAvFM6t5tNVV-4" value="ApplicationThreadNative" style="swimlane;fontStyle=1;align=center;verticalAlign=top;childLayout=stackLayout;horizontal=1;startSize=26;horizontalStack=0;resizeParent=1;resizeParentMax=0;resizeLast=0;collapsible=1;marginBottom=0;" vertex="1" parent="1">
          <mxGeometry x="450" y="300" width="160" height="86" as="geometry" />
        </mxCell>
        <mxCell id="835MB37bWAvFM6t5tNVV-5" value="+ transact()" style="text;strokeColor=none;fillColor=none;align=left;verticalAlign=top;spacingLeft=4;spacingRight=4;overflow=hidden;rotatable=0;points=[[0,0.5],[1,0.5]];portConstraint=eastwest;" vertex="1" parent="835MB37bWAvFM6t5tNVV-4">
          <mxGeometry y="26" width="160" height="26" as="geometry" />
        </mxCell>
        <mxCell id="835MB37bWAvFM6t5tNVV-6" value="" style="line;strokeWidth=1;fillColor=none;align=left;verticalAlign=middle;spacingTop=-1;spacingLeft=3;spacingRight=3;rotatable=0;labelPosition=right;points=[];portConstraint=eastwest;" vertex="1" parent="835MB37bWAvFM6t5tNVV-4">
          <mxGeometry y="52" width="160" height="8" as="geometry" />
        </mxCell>
        <mxCell id="835MB37bWAvFM6t5tNVV-7" value="+ onTransact()" style="text;strokeColor=none;fillColor=none;align=left;verticalAlign=top;spacingLeft=4;spacingRight=4;overflow=hidden;rotatable=0;points=[[0,0.5],[1,0.5]];portConstraint=eastwest;" vertex="1" parent="835MB37bWAvFM6t5tNVV-4">
          <mxGeometry y="60" width="160" height="26" as="geometry" />
        </mxCell>
        <mxCell id="835MB37bWAvFM6t5tNVV-8" value="Extends" style="endArrow=block;endSize=16;endFill=0;html=1;entryX=0.506;entryY=1.154;entryDx=0;entryDy=0;entryPerimeter=0;" edge="1" parent="1" source="835MB37bWAvFM6t5tNVV-4" target="835MB37bWAvFM6t5tNVV-18">
          <mxGeometry width="160" relative="1" as="geometry">
            <mxPoint x="240" y="390" as="sourcePoint" />
            <mxPoint x="530" y="192" as="targetPoint" />
          </mxGeometry>
        </mxCell>
        <mxCell id="835MB37bWAvFM6t5tNVV-9" value="«interface»&lt;br&gt;&lt;span style=&quot;color: rgb(51 , 51 , 51) ; font-family: &amp;#34;menlo&amp;#34; , &amp;#34;monaco&amp;#34; , &amp;#34;consolas&amp;#34; , &amp;#34;courier new&amp;#34; , monospace ; font-size: 13px ; white-space: pre-wrap ; background-color: rgb(255 , 255 , 255)&quot;&gt;&lt;b&gt;IApplicationThread&lt;/b&gt;&lt;/span&gt;&lt;b&gt;&lt;br&gt;+asBinder()&lt;br&gt;&lt;/b&gt;" style="html=1;" vertex="1" parent="1">
          <mxGeometry x="210" y="132" width="170" height="48" as="geometry" />
        </mxCell>
        <mxCell id="835MB37bWAvFM6t5tNVV-10" value="Extends" style="endArrow=block;endSize=16;endFill=0;html=1;entryX=0.5;entryY=1;entryDx=0;entryDy=0;" edge="1" parent="1" source="835MB37bWAvFM6t5tNVV-9" target="835MB37bWAvFM6t5tNVV-1">
          <mxGeometry width="160" relative="1" as="geometry">
            <mxPoint x="240" y="390" as="sourcePoint" />
            <mxPoint x="400" y="390" as="targetPoint" />
          </mxGeometry>
        </mxCell>
        <mxCell id="835MB37bWAvFM6t5tNVV-11" value="ApplicationThreadProxy" style="swimlane;fontStyle=1;align=center;verticalAlign=top;childLayout=stackLayout;horizontal=1;startSize=26;horizontalStack=0;resizeParent=1;resizeParentMax=0;resizeLast=0;collapsible=1;marginBottom=0;" vertex="1" parent="1">
          <mxGeometry x="40" y="300" width="160" height="34" as="geometry" />
        </mxCell>
        <mxCell id="835MB37bWAvFM6t5tNVV-12" value="" style="line;strokeWidth=1;fillColor=none;align=left;verticalAlign=middle;spacingTop=-1;spacingLeft=3;spacingRight=3;rotatable=0;labelPosition=right;points=[];portConstraint=eastwest;" vertex="1" parent="835MB37bWAvFM6t5tNVV-11">
          <mxGeometry y="26" width="160" height="8" as="geometry" />
        </mxCell>
        <mxCell id="835MB37bWAvFM6t5tNVV-13" value="Extends" style="endArrow=block;endSize=16;endFill=0;html=1;entryX=0.5;entryY=1;entryDx=0;entryDy=0;exitX=0.5;exitY=0;exitDx=0;exitDy=0;" edge="1" parent="1" source="835MB37bWAvFM6t5tNVV-11" target="835MB37bWAvFM6t5tNVV-9">
          <mxGeometry width="160" relative="1" as="geometry">
            <mxPoint x="40" y="370" as="sourcePoint" />
            <mxPoint x="200" y="370" as="targetPoint" />
            <Array as="points">
              <mxPoint x="120" y="240" />
              <mxPoint x="295" y="240" />
            </Array>
          </mxGeometry>
        </mxCell>
        <mxCell id="835MB37bWAvFM6t5tNVV-14" value="Extends" style="endArrow=block;endSize=16;endFill=0;html=1;exitX=0.25;exitY=0;exitDx=0;exitDy=0;entryX=0.5;entryY=1;entryDx=0;entryDy=0;" edge="1" parent="1" source="835MB37bWAvFM6t5tNVV-4" target="835MB37bWAvFM6t5tNVV-9">
          <mxGeometry width="160" relative="1" as="geometry">
            <mxPoint x="40" y="370" as="sourcePoint" />
            <mxPoint x="300" y="190" as="targetPoint" />
            <Array as="points">
              <mxPoint x="490" y="240" />
              <mxPoint x="340" y="240" />
              <mxPoint x="295" y="240" />
            </Array>
          </mxGeometry>
        </mxCell>
        <mxCell id="835MB37bWAvFM6t5tNVV-15" value="Binder" style="swimlane;fontStyle=1;align=center;verticalAlign=top;childLayout=stackLayout;horizontal=1;startSize=26;horizontalStack=0;resizeParent=1;resizeParentMax=0;resizeLast=0;collapsible=1;marginBottom=0;" vertex="1" parent="1">
          <mxGeometry x="450" y="120" width="160" height="86" as="geometry" />
        </mxCell>
        <mxCell id="835MB37bWAvFM6t5tNVV-16" value="+ transact()" style="text;strokeColor=none;fillColor=none;align=left;verticalAlign=top;spacingLeft=4;spacingRight=4;overflow=hidden;rotatable=0;points=[[0,0.5],[1,0.5]];portConstraint=eastwest;" vertex="1" parent="835MB37bWAvFM6t5tNVV-15">
          <mxGeometry y="26" width="160" height="26" as="geometry" />
        </mxCell>
        <mxCell id="835MB37bWAvFM6t5tNVV-17" value="" style="line;strokeWidth=1;fillColor=none;align=left;verticalAlign=middle;spacingTop=-1;spacingLeft=3;spacingRight=3;rotatable=0;labelPosition=right;points=[];portConstraint=eastwest;" vertex="1" parent="835MB37bWAvFM6t5tNVV-15">
          <mxGeometry y="52" width="160" height="8" as="geometry" />
        </mxCell>
        <mxCell id="835MB37bWAvFM6t5tNVV-18" value="+ onTransact()" style="text;strokeColor=none;fillColor=none;align=left;verticalAlign=top;spacingLeft=4;spacingRight=4;overflow=hidden;rotatable=0;points=[[0,0.5],[1,0.5]];portConstraint=eastwest;" vertex="1" parent="835MB37bWAvFM6t5tNVV-15">
          <mxGeometry y="60" width="160" height="26" as="geometry" />
        </mxCell>
      </root>
    </mxGraphModel>
  </diagram>
</mxfile>
